<svg xmlns="http://www.w3.org/2000/svg" width="800" height="260" viewBox="0 -60 800 260" preserveAspectRatio="xMidYMax slice"><defs><filter id="il-grain" x="0" y="0" width="100%" height="100%"><feTurbulence type="fractalNoise" baseFrequency=".85" numOctaves="2" stitchTiles="stitch"/><feColorMatrix type="matrix" values="0 0 0 0 .45  0 0 0 0 .38  0 0 0 0 .3  0 0 0 .55 0"/></filter><linearGradient id="d9s" x1="0" y1="0" x2="0" y2="1"><stop offset="0" stop-color="#4a5a8a"/><stop offset="0.5" stop-color="#d58a6e"/><stop offset="1" stop-color="#f6c98a"/></linearGradient></defs><rect y="-60" width="800" height="260" fill="url(#d9s)"/><g transform="translate(0 30)"><rect x="100" y="-60" width="300" height="6" rx="3.0" fill="#e8b8a8" opacity="0.35"/><rect x="480" y="-30" width="260" height="5" rx="2.5" fill="#e8b8a8" opacity="0.35"/><path d="M414 -44 Q417 -48 420 -44 Q423 -48 426 -44" stroke="#4a3a55" stroke-width="1.4" fill="none"/><path d="M430 -52 Q433 -56 436 -52 Q439 -56 442 -52" stroke="#4a3a55" stroke-width="1.4" fill="none"/><path d="M446 -42 Q449 -46 452 -42 Q455 -46 458 -42" stroke="#4a3a55" stroke-width="1.4" fill="none"/></g><circle cx="560" cy="96" r="22" fill="#ffe0a3"/><rect x="60" y="46" width="260" height="6" rx="3.0" fill="#ffd9b8" opacity="0.4"/><rect x="460" y="60" width="280" height="5" rx="2.5" fill="#ffd9b8" opacity="0.4"/><path d="M0 150 L10 130 L100 130 L110 150 Z" fill="#3b2f3f"/><rect x="6" y="150" width="98" height="30" fill="#4a3a45"/><rect x="12" y="156" width="86" height="10" fill="#f6c77f" opacity=".75"/><path d="M104 150 L114 124 L190 124 L200 150 Z" fill="#3b2f3f"/><rect x="110" y="150" width="84" height="30" fill="#4a3a45"/><rect x="116" y="156" width="72" height="10" fill="#f6c77f" opacity=".75"/><path d="M600 150 L610 128 L700 128 L710 150 Z" fill="#3b2f3f"/><rect x="606" y="150" width="98" height="30" fill="#4a3a45"/><rect x="612" y="156" width="86" height="10" fill="#f6c77f" opacity=".75"/><path d="M704 150 L714 132 L794 132 L804 150 Z" fill="#3b2f3f"/><rect x="710" y="150" width="88" height="30" fill="#4a3a45"/><rect x="716" y="156" width="76" height="10" fill="#f6c77f" opacity=".75"/><path d="M360 104 L540 104 L554 112 L346 112 Z" fill="#8a6d78"/><path d="M346 112 L554 112 L568 120 L332 120 Z" fill="#43323d"/><path d="M332 120 L568 120 L582 128 L318 128 Z" fill="#8a6d78"/><path d="M318 128 L582 128 L596 136 L304 136 Z" fill="#43323d"/><path d="M304 136 L596 136 L610 144 L290 144 Z" fill="#8a6d78"/><path d="M290 144 L610 144 L624 152 L276 152 Z" fill="#43323d"/><path d="M276 152 L624 152 L638 160 L262 160 Z" fill="#8a6d78"/><path d="M262 160 L638 160 L652 168 L248 168 Z" fill="#43323d"/><path d="M248 168 L652 168 L666 176 L234 176 Z" fill="#8a6d78"/><rect x="330" y="98" width="240" height="6" fill="#7a5f6c"/><rect x="296" y="70" width="3" height="110" fill="#2b2230"/><rect x="640" y="70" width="3" height="110" fill="#2b2230"/><g transform="translate(297 86) scale(0.7)"><rect x="-9" y="-3" width="18" height="3" fill="#2b2230"/><rect x="-11" y="0" width="22" height="26" rx="9" fill="#f6c77f"/><rect x="-9" y="26" width="18" height="3" fill="#2b2230"/></g><g transform="translate(641 86) scale(0.7)"><rect x="-9" y="-3" width="18" height="3" fill="#2b2230"/><rect x="-11" y="0" width="22" height="26" rx="9" fill="#f6c77f"/><rect x="-9" y="26" width="18" height="3" fill="#2b2230"/></g><g transform="translate(520 128) scale(1 1)" fill="#1f1822"><path d="M0 0 Q-2 -12 4 -16 L3 -22 L7 -18 L10 -18 L13 -22 L13 -15 Q17 -10 14 0 Z"/><path d="M13 -2 Q24 -2 22 -12 Q21 -16 18 -14 Q20 -8 13 -6 Z"/></g><g transform="translate(600 160) scale(-1.1 1.1)" fill="#1f1822"><path d="M0 0 Q-2 -12 4 -16 L3 -22 L7 -18 L10 -18 L13 -22 L13 -15 Q17 -10 14 0 Z"/><path d="M13 -2 Q24 -2 22 -12 Q21 -16 18 -14 Q20 -8 13 -6 Z"/></g><g transform="translate(446 104) scale(0.8 0.8)" fill="#1f1822"><path d="M0 0 Q-2 -12 4 -16 L3 -22 L7 -18 L10 -18 L13 -22 L13 -15 Q17 -10 14 0 Z"/><path d="M13 -2 Q24 -2 22 -12 Q21 -16 18 -14 Q20 -8 13 -6 Z"/></g><rect y="176" width="800" height="24" fill="#2b2230"/><rect y="-60" width="800" height="260" filter="url(#il-grain)" opacity=".5" style="mix-blend-mode:multiply"/></svg>