<svg xmlns="http://www.w3.org/2000/svg" width="800" height="260" viewBox="0 -60 800 260" preserveAspectRatio="xMidYMax slice"><defs><filter id="il-grain" x="0" y="0" width="100%" height="100%"><feTurbulence type="fractalNoise" baseFrequency=".85" numOctaves="2" stitchTiles="stitch"/><feColorMatrix type="matrix" values="0 0 0 0 .45  0 0 0 0 .38  0 0 0 0 .3  0 0 0 .55 0"/></filter><linearGradient id="d6s" x1="0" y1="0" x2="0" y2="1"><stop offset="0" stop-color="#2a3566"/><stop offset="0.4" stop-color="#7b5d8f"/><stop offset="0.72" stop-color="#ec8f6a"/><stop offset="1" stop-color="#f8c77d"/></linearGradient></defs><rect y="-60" width="800" height="260" fill="url(#d6s)"/><g transform="translate(0 30)"><rect x="140" y="-64" width="300" height="6" rx="3.0" fill="#c7a8c9" opacity="0.3"/><rect x="520" y="-30" width="220" height="6" rx="3.0" fill="#c7a8c9" opacity="0.3"/><circle cx="90" cy="-86" r="1.1" fill="#fff" opacity="0.7"/><circle cx="700" cy="-80" r="1.2" fill="#fff" opacity="0.7"/><circle cx="360" cy="-92" r="1" fill="#fff" opacity="0.5"/></g><circle cx="250" cy="120" r="24" fill="#ffd79a"/><path d="M105.0 132 Q153.0 125.88 167.25 100 L175.5375 97 L182.55 99 L192.75 100 Q207.0 125.88 255.0 132 Z" fill="#8c6a8f"/><path d="M167.25 100 L175.5375 97 L182.55 99 L192.75 100 Q198.06689197828905 103.44 202.80493624163634 108.88 L200.27105443701006 107.82309256291992 L197.73717263238382 114.16453718540038 L195.20329082775754 107.82889640115162 L192.6694090231313 110.98220719769674 L190.13552721850502 108.4592068727436 L187.60164541387877 110.983965636282 L185.06776360925252 108.4391785250236 L182.53388180462628 109.76164294995277 L179.99999999999997 107.90833519338685 L177.46611819537372 113.73832403306572 L174.93223639074748 107.97872202373074 L172.39835458612123 110.68255595253852 L169.86447278149495 108.02556666010148 L167.3305909768687 113.15216669949261 L164.79670917224243 108.28128589719296 L162.26282736761618 110.07742820561408 L157.19506375836366 108.88 Q161.93310802171095 103.44 167.25 100 Z" fill="#e6c9d6"/><rect x="40" y="60" width="260" height="6" rx="3.0" fill="#ffd1b3" opacity="0.35"/><rect x="430" y="46" width="300" height="6" rx="3.0" fill="#ffd1b3" opacity="0.35"/><rect x="0" y="129" width="31" height="23" fill="#4e4a78"/><rect x="35" y="109" width="22" height="43" fill="#4e4a78"/><rect x="59" y="124" width="25" height="28" fill="#4e4a78"/><rect x="84" y="123" width="31" height="29" fill="#4e4a78"/><rect x="117" y="122" width="18" height="30" fill="#4e4a78"/><rect x="138" y="129" width="26" height="23" fill="#4e4a78"/><rect x="166" y="134" width="36" height="18" fill="#4e4a78"/><rect x="206" y="132" width="38" height="20" fill="#4e4a78"/><rect x="245" y="134" width="26" height="18" fill="#4e4a78"/><rect x="274" y="130" width="20" height="22" fill="#4e4a78"/><rect x="297" y="106" width="25" height="46" fill="#4e4a78"/><rect x="324" y="107" width="39" height="45" fill="#4e4a78"/><rect x="365" y="124" width="30" height="28" fill="#4e4a78"/><rect x="399" y="110" width="27" height="42" fill="#4e4a78"/><rect x="427" y="115" width="38" height="37" fill="#4e4a78"/><rect x="467" y="121" width="29" height="31" fill="#4e4a78"/><rect x="497" y="129" width="20" height="23" fill="#4e4a78"/><rect x="517" y="123" width="33" height="29" fill="#4e4a78"/><rect x="553" y="117" width="16" height="35" fill="#4e4a78"/><rect x="572" y="107" width="18" height="45" fill="#4e4a78"/><rect x="592" y="121" width="16" height="31" fill="#4e4a78"/><rect x="609" y="120" width="19" height="32" fill="#4e4a78"/><rect x="630" y="132" width="38" height="20" fill="#4e4a78"/><rect x="671" y="131" width="22" height="21" fill="#4e4a78"/><rect x="697" y="115" width="27" height="37" fill="#4e4a78"/><rect x="726" y="108" width="17" height="44" fill="#4e4a78"/><rect x="746" y="121" width="24" height="31" fill="#4e4a78"/><rect x="773" y="130" width="22" height="22" fill="#4e4a78"/><rect x="795" y="119" width="28" height="33" fill="#4e4a78"/><g><rect x="470" y="30" width="62" height="146" fill="#2a2a52"/><path d="M470 30 L532 30 L532 38 L470 44 Z" fill="#35355f"/><rect x="466" y="26" width="70" height="5" fill="#f6c77f"/><rect x="476" y="50" width="4" height="4" fill="#f6c77f" opacity="0.5"/><rect x="485" y="50" width="4" height="4" fill="#f6c77f" opacity="0.7"/><rect x="494" y="50" width="4" height="4" fill="#f6c77f" opacity="0.9"/><rect x="503" y="50" width="4" height="4" fill="#f6c77f" opacity="0.6"/><rect x="512" y="50" width="4" height="4" fill="#f6c77f" opacity="0.8"/><rect x="521" y="50" width="4" height="4" fill="#f6c77f" opacity="0.5"/><rect x="476" y="60" width="4" height="4" fill="#f6c77f" opacity="0.7"/><rect x="485" y="60" width="4" height="4" fill="#f6c77f" opacity="0.9"/><rect x="494" y="60" width="4" height="4" fill="#f6c77f" opacity="0.6"/><rect x="503" y="60" width="4" height="4" fill="#f6c77f" opacity="0.8"/><rect x="512" y="60" width="4" height="4" fill="#f6c77f" opacity="0.5"/><rect x="521" y="60" width="4" height="4" fill="#f6c77f" opacity="0.7"/><rect x="476" y="70" width="4" height="4" fill="#f6c77f" opacity="0.9"/><rect x="485" y="70" width="4" height="4" fill="#f6c77f" opacity="0.6"/><rect x="494" y="70" width="4" height="4" fill="#f6c77f" opacity="0.8"/><rect x="503" y="70" width="4" height="4" fill="#f6c77f" opacity="0.5"/><rect x="512" y="70" width="4" height="4" fill="#f6c77f" opacity="0.7"/><rect x="521" y="70" width="4" height="4" fill="#f6c77f" opacity="0.9"/><rect x="476" y="80" width="4" height="4" fill="#f6c77f" opacity="0.6"/><rect x="485" y="80" width="4" height="4" fill="#f6c77f" opacity="0.8"/><rect x="494" y="80" width="4" height="4" fill="#f6c77f" opacity="0.5"/><rect x="503" y="80" width="4" height="4" fill="#f6c77f" opacity="0.7"/><rect x="512" y="80" width="4" height="4" fill="#f6c77f" opacity="0.9"/><rect x="521" y="80" width="4" height="4" fill="#f6c77f" opacity="0.6"/><rect x="476" y="90" width="4" height="4" fill="#f6c77f" opacity="0.8"/><rect x="485" y="90" width="4" height="4" fill="#f6c77f" opacity="0.5"/><rect x="494" y="90" width="4" height="4" fill="#f6c77f" opacity="0.7"/><rect x="503" y="90" width="4" height="4" fill="#f6c77f" opacity="0.9"/><rect x="512" y="90" width="4" height="4" fill="#f6c77f" opacity="0.6"/><rect x="521" y="90" width="4" height="4" fill="#f6c77f" opacity="0.8"/><rect x="476" y="100" width="4" height="4" fill="#f6c77f" opacity="0.5"/><rect x="485" y="100" width="4" height="4" fill="#f6c77f" opacity="0.7"/><rect x="494" y="100" width="4" height="4" fill="#f6c77f" opacity="0.9"/><rect x="503" y="100" width="4" height="4" fill="#f6c77f" opacity="0.6"/><rect x="512" y="100" width="4" height="4" fill="#f6c77f" opacity="0.8"/><rect x="521" y="100" width="4" height="4" fill="#f6c77f" opacity="0.5"/><rect x="476" y="110" width="4" height="4" fill="#f6c77f" opacity="0.7"/><rect x="485" y="110" width="4" height="4" fill="#f6c77f" opacity="0.9"/><rect x="494" y="110" width="4" height="4" fill="#f6c77f" opacity="0.6"/><rect x="503" y="110" width="4" height="4" fill="#f6c77f" opacity="0.8"/><rect x="512" y="110" width="4" height="4" fill="#f6c77f" opacity="0.5"/><rect x="521" y="110" width="4" height="4" fill="#f6c77f" opacity="0.7"/><rect x="476" y="120" width="4" height="4" fill="#f6c77f" opacity="0.9"/><rect x="485" y="120" width="4" height="4" fill="#f6c77f" opacity="0.6"/><rect x="494" y="120" width="4" height="4" fill="#f6c77f" opacity="0.8"/><rect x="503" y="120" width="4" height="4" fill="#f6c77f" opacity="0.5"/><rect x="512" y="120" width="4" height="4" fill="#f6c77f" opacity="0.7"/><rect x="521" y="120" width="4" height="4" fill="#f6c77f" opacity="0.9"/><rect x="476" y="130" width="4" height="4" fill="#f6c77f" opacity="0.6"/><rect x="485" y="130" width="4" height="4" fill="#f6c77f" opacity="0.8"/><rect x="494" y="130" width="4" height="4" fill="#f6c77f" opacity="0.5"/><rect x="503" y="130" width="4" height="4" fill="#f6c77f" opacity="0.7"/><rect x="512" y="130" width="4" height="4" fill="#f6c77f" opacity="0.9"/><rect x="521" y="130" width="4" height="4" fill="#f6c77f" opacity="0.6"/><rect x="476" y="140" width="4" height="4" fill="#f6c77f" opacity="0.8"/><rect x="485" y="140" width="4" height="4" fill="#f6c77f" opacity="0.5"/><rect x="494" y="140" width="4" height="4" fill="#f6c77f" opacity="0.7"/><rect x="503" y="140" width="4" height="4" fill="#f6c77f" opacity="0.9"/><rect x="512" y="140" width="4" height="4" fill="#f6c77f" opacity="0.6"/><rect x="521" y="140" width="4" height="4" fill="#f6c77f" opacity="0.8"/></g><rect x="0" y="145" width="36" height="33" fill="#262549"/><rect x="4" y="151" width="2.2" height="3" fill="#f6c77f" opacity="0.6"/><rect x="28" y="151" width="2.2" height="3" fill="#f6c77f" opacity="0.6"/><rect x="4" y="158" width="2.2" height="3" fill="#f6c77f" opacity="0.8"/><rect x="16" y="158" width="2.2" height="3" fill="#f6c77f" opacity="0.6"/><rect x="22" y="158" width="2.2" height="3" fill="#f6c77f" opacity="0.8"/><rect x="22" y="165" width="2.2" height="3" fill="#f6c77f" opacity="0.6"/><rect x="38" y="128" width="35" height="50" fill="#262549"/><rect x="54" y="148" width="2.2" height="3" fill="#f6c77f" opacity="1"/><rect x="60" y="148" width="2.2" height="3" fill="#f6c77f" opacity="1"/><rect x="42" y="155" width="2.2" height="3" fill="#f6c77f" opacity="0.6"/><rect x="48" y="155" width="2.2" height="3" fill="#f6c77f" opacity="1"/><rect x="76" y="150" width="20" height="28" fill="#262549"/><rect x="98" y="115" width="28" height="63" fill="#262549"/><rect x="114" y="121" width="2.2" height="3" fill="#f6c77f" opacity="0.8"/><rect x="102" y="142" width="2.2" height="3" fill="#f6c77f" opacity="1"/><rect x="108" y="149" width="2.2" height="3" fill="#f6c77f" opacity="1"/><rect x="114" y="149" width="2.2" height="3" fill="#f6c77f" opacity="0.8"/><rect x="114" y="156" width="2.2" height="3" fill="#f6c77f" opacity="0.6"/><rect x="102" y="163" width="2.2" height="3" fill="#f6c77f" opacity="0.8"/><rect x="102" y="170" width="2.2" height="3" fill="#f6c77f" opacity="1"/><rect x="129" y="140" width="34" height="38" fill="#262549"/><rect x="151" y="153" width="2.2" height="3" fill="#f6c77f" opacity="0.8"/><rect x="139" y="160" width="2.2" height="3" fill="#f6c77f" opacity="1"/><rect x="165" y="119" width="23" height="59" fill="#262549"/><rect x="175" y="132" width="2.2" height="3" fill="#f6c77f" opacity="1"/><rect x="181" y="146" width="2.2" height="3" fill="#f6c77f" opacity="0.6"/><rect x="175" y="153" width="2.2" height="3" fill="#f6c77f" opacity="0.8"/><rect x="175" y="160" width="2.2" height="3" fill="#f6c77f" opacity="0.8"/><rect x="190" y="155" width="43" height="23" fill="#262549"/><rect x="194" y="161" width="2.2" height="3" fill="#f6c77f" opacity="1"/><rect x="224" y="161" width="2.2" height="3" fill="#f6c77f" opacity="1"/><rect x="206" y="168" width="2.2" height="3" fill="#f6c77f" opacity="1"/><rect x="235" y="145" width="19" height="33" fill="#262549"/><rect x="256" y="149" width="30" height="29" fill="#262549"/><rect x="260" y="169" width="2.2" height="3" fill="#f6c77f" opacity="0.8"/><rect x="278" y="169" width="2.2" height="3" fill="#f6c77f" opacity="0.6"/><rect x="287" y="117" width="33" height="61" fill="#262549"/><rect x="303" y="123" width="2.2" height="3" fill="#f6c77f" opacity="0.6"/><rect x="309" y="123" width="2.2" height="3" fill="#f6c77f" opacity="1"/><rect x="315" y="123" width="2.2" height="3" fill="#f6c77f" opacity="1"/><rect x="303" y="137" width="2.2" height="3" fill="#f6c77f" opacity="0.8"/><rect x="309" y="144" width="2.2" height="3" fill="#f6c77f" opacity="0.6"/><rect x="291" y="151" width="2.2" height="3" fill="#f6c77f" opacity="0.8"/><rect x="309" y="151" width="2.2" height="3" fill="#f6c77f" opacity="0.8"/><rect x="303" y="158" width="2.2" height="3" fill="#f6c77f" opacity="1"/><rect x="309" y="165" width="2.2" height="3" fill="#f6c77f" opacity="0.8"/><rect x="322" y="138" width="33" height="40" fill="#262549"/><rect x="326" y="144" width="2.2" height="3" fill="#f6c77f" opacity="0.6"/><rect x="332" y="144" width="2.2" height="3" fill="#f6c77f" opacity="0.8"/><rect x="350" y="144" width="2.2" height="3" fill="#f6c77f" opacity="0.8"/><rect x="326" y="151" width="2.2" height="3" fill="#f6c77f" opacity="0.6"/><rect x="350" y="151" width="2.2" height="3" fill="#f6c77f" opacity="0.6"/><rect x="350" y="158" width="2.2" height="3" fill="#f6c77f" opacity="0.6"/><rect x="358" y="132" width="35" height="46" fill="#262549"/><rect x="362" y="138" width="2.2" height="3" fill="#f6c77f" opacity="0.8"/><rect x="368" y="138" width="2.2" height="3" fill="#f6c77f" opacity="0.8"/><rect x="386" y="152" width="2.2" height="3" fill="#f6c77f" opacity="0.6"/><rect x="374" y="159" width="2.2" height="3" fill="#f6c77f" opacity="1"/><rect x="362" y="166" width="2.2" height="3" fill="#f6c77f" opacity="0.8"/><rect x="374" y="166" width="2.2" height="3" fill="#f6c77f" opacity="0.8"/><rect x="396" y="140" width="23" height="38" fill="#262549"/><rect x="412" y="146" width="2.2" height="3" fill="#f6c77f" opacity="0.8"/><rect x="422" y="146" width="30" height="32" fill="#262549"/><rect x="438" y="166" width="2.2" height="3" fill="#f6c77f" opacity="0.8"/><rect x="453" y="118" width="26" height="60" fill="#262549"/><rect x="463" y="131" width="2.2" height="3" fill="#f6c77f" opacity="0.8"/><rect x="457" y="138" width="2.2" height="3" fill="#f6c77f" opacity="1"/><rect x="463" y="138" width="2.2" height="3" fill="#f6c77f" opacity="0.6"/><rect x="457" y="152" width="2.2" height="3" fill="#f6c77f" opacity="1"/><rect x="469" y="152" width="2.2" height="3" fill="#f6c77f" opacity="0.6"/><rect x="457" y="159" width="2.2" height="3" fill="#f6c77f" opacity="0.6"/><rect x="463" y="159" width="2.2" height="3" fill="#f6c77f" opacity="0.6"/><rect x="463" y="166" width="2.2" height="3" fill="#f6c77f" opacity="1"/><rect x="481" y="124" width="26" height="54" fill="#262549"/><rect x="497" y="130" width="2.2" height="3" fill="#f6c77f" opacity="0.8"/><rect x="485" y="151" width="2.2" height="3" fill="#f6c77f" opacity="0.6"/><rect x="491" y="151" width="2.2" height="3" fill="#f6c77f" opacity="0.8"/><rect x="485" y="158" width="2.2" height="3" fill="#f6c77f" opacity="0.8"/><rect x="491" y="165" width="2.2" height="3" fill="#f6c77f" opacity="0.6"/><rect x="509" y="156" width="44" height="22" fill="#262549"/><rect x="531" y="169" width="2.2" height="3" fill="#f6c77f" opacity="1"/><rect x="555" y="126" width="20" height="52" fill="#262549"/><rect x="559" y="139" width="2.2" height="3" fill="#f6c77f" opacity="1"/><rect x="565" y="160" width="2.2" height="3" fill="#f6c77f" opacity="1"/><rect x="559" y="167" width="2.2" height="3" fill="#f6c77f" opacity="0.6"/><rect x="577" y="128" width="19" height="50" fill="#262549"/><rect x="581" y="134" width="2.2" height="3" fill="#f6c77f" opacity="0.8"/><rect x="587" y="134" width="2.2" height="3" fill="#f6c77f" opacity="0.6"/><rect x="587" y="141" width="2.2" height="3" fill="#f6c77f" opacity="1"/><rect x="581" y="162" width="2.2" height="3" fill="#f6c77f" opacity="0.8"/><rect x="581" y="169" width="2.2" height="3" fill="#f6c77f" opacity="0.6"/><rect x="598" y="138" width="28" height="40" fill="#262549"/><rect x="602" y="151" width="2.2" height="3" fill="#f6c77f" opacity="0.6"/><rect x="608" y="151" width="2.2" height="3" fill="#f6c77f" opacity="1"/><rect x="620" y="151" width="2.2" height="3" fill="#f6c77f" opacity="0.8"/><rect x="628" y="146" width="20" height="32" fill="#262549"/><rect x="632" y="166" width="2.2" height="3" fill="#f6c77f" opacity="1"/><rect x="638" y="166" width="2.2" height="3" fill="#f6c77f" opacity="1"/><rect x="649" y="136" width="39" height="42" fill="#262549"/><rect x="653" y="142" width="2.2" height="3" fill="#f6c77f" opacity="1"/><rect x="671" y="149" width="2.2" height="3" fill="#f6c77f" opacity="1"/><rect x="653" y="156" width="2.2" height="3" fill="#f6c77f" opacity="0.8"/><rect x="659" y="156" width="2.2" height="3" fill="#f6c77f" opacity="1"/><rect x="677" y="163" width="2.2" height="3" fill="#f6c77f" opacity="0.8"/><rect x="665" y="170" width="2.2" height="3" fill="#f6c77f" opacity="1"/><rect x="689" y="121" width="38" height="57" fill="#262549"/><rect x="717" y="127" width="2.2" height="3" fill="#f6c77f" opacity="0.6"/><rect x="699" y="134" width="2.2" height="3" fill="#f6c77f" opacity="1"/><rect x="711" y="134" width="2.2" height="3" fill="#f6c77f" opacity="0.8"/><rect x="705" y="141" width="2.2" height="3" fill="#f6c77f" opacity="0.8"/><rect x="699" y="148" width="2.2" height="3" fill="#f6c77f" opacity="0.6"/><rect x="711" y="155" width="2.2" height="3" fill="#f6c77f" opacity="0.6"/><rect x="705" y="162" width="2.2" height="3" fill="#f6c77f" opacity="1"/><rect x="711" y="162" width="2.2" height="3" fill="#f6c77f" opacity="0.8"/><rect x="717" y="162" width="2.2" height="3" fill="#f6c77f" opacity="1"/><rect x="693" y="169" width="2.2" height="3" fill="#f6c77f" opacity="0.8"/><rect x="730" y="143" width="29" height="35" fill="#262549"/><rect x="746" y="170" width="2.2" height="3" fill="#f6c77f" opacity="0.6"/><rect x="760" y="117" width="29" height="61" fill="#262549"/><rect x="770" y="123" width="2.2" height="3" fill="#f6c77f" opacity="0.6"/><rect x="776" y="137" width="2.2" height="3" fill="#f6c77f" opacity="0.6"/><rect x="764" y="144" width="2.2" height="3" fill="#f6c77f" opacity="0.8"/><rect x="776" y="144" width="2.2" height="3" fill="#f6c77f" opacity="0.6"/><rect x="782" y="158" width="2.2" height="3" fill="#f6c77f" opacity="0.6"/><rect x="776" y="165" width="2.2" height="3" fill="#f6c77f" opacity="0.8"/><rect x="791" y="128" width="38" height="50" fill="#262549"/><rect x="795" y="134" width="2.2" height="3" fill="#f6c77f" opacity="0.6"/><rect x="801" y="134" width="2.2" height="3" fill="#f6c77f" opacity="1"/><rect x="819" y="134" width="2.2" height="3" fill="#f6c77f" opacity="1"/><rect x="813" y="155" width="2.2" height="3" fill="#f6c77f" opacity="1"/><rect x="819" y="169" width="2.2" height="3" fill="#f6c77f" opacity="0.6"/><rect y="174" width="800" height="26" fill="#1a1a38"/><rect x="120" y="186" width="22" height="3" fill="#fff" opacity=".8"/><rect x="150" y="186" width="22" height="3" fill="#fff" opacity=".8"/><rect x="180" y="186" width="22" height="3" fill="#fff" opacity=".8"/><rect x="210" y="186" width="22" height="3" fill="#fff" opacity=".8"/><rect x="240" y="186" width="22" height="3" fill="#fff" opacity=".8"/><rect x="560" y="178" width="96" height="16" rx="3" fill="#c2412d"/><rect x="566" y="181" width="84" height="4" fill="#f6c77f" opacity=".8"/><circle cx="574" cy="195" r="4" fill="#111"/><circle cx="642" cy="195" r="4" fill="#111"/><rect y="-60" width="800" height="260" filter="url(#il-grain)" opacity=".5" style="mix-blend-mode:multiply"/></svg>