<svg xmlns="http://www.w3.org/2000/svg" width="800" height="200" viewBox="0 0 800 200" preserveAspectRatio="xMidYMax slice"><defs><filter id="il-grain" x="0" y="0" width="100%" height="100%"><feTurbulence type="fractalNoise" baseFrequency=".85" numOctaves="2" stitchTiles="stitch"/><feColorMatrix type="matrix" values="0 0 0 0 .45  0 0 0 0 .38  0 0 0 0 .3  0 0 0 .55 0"/></filter><linearGradient id="d8s" x1="0" y1="0" x2="0" y2="1"><stop offset="0" stop-color="#3d5a8a"/><stop offset="0.5" stop-color="#c98a8c"/><stop offset="0.8" stop-color="#f4b16c"/><stop offset="1" stop-color="#f9d69a"/></linearGradient><linearGradient id="d8w" x1="0" y1="0" x2="0" y2="1"><stop offset="0" stop-color="#f0a868"/><stop offset="1" stop-color="#28406b"/></linearGradient></defs><rect width="800" height="200" fill="url(#d8s)"/><circle cx="330" cy="128" r="26" fill="#ffe2a8"/><path d="M55.0 130 Q109.4 122.8 125.55 92 L134.9425 89 L142.89 91 L154.45 92 Q170.6 122.8 225.0 130 Z" fill="#8a7ba0"/><path d="M125.55 92 L134.9425 89 L142.89 91 L154.45 92 Q159.84033827476833 96.0 164.72758377828126 102.0 L161.98007446958334 101.35560798933845 L159.23256516088543 105.22196005330773 L156.48505585218751 101.46616585952005 L153.7375465434896 103.06766828095991 L150.99003723479166 101.22247954214791 L148.24252792609374 105.88760228926043 L145.49501861739583 101.4230630706924 L142.74750930869791 103.15387385861521 L140.0 101.49665944039458 L137.25249069130209 104.5167027980271 L134.50498138260417 101.21787627594841 L131.75747207390626 103.56424744810316 L129.00996276520834 100.78826140415102 L126.26245345651041 108.05869297924491 L123.51494414781249 100.88602364355549 L120.76743483911457 104.22795271288902 L115.27241622171874 102.0 Q120.15966172523167 96.0 125.55 92 Z" fill="#e8d8e4"/><rect x="20" y="70" width="240" height="5" rx="2.5" fill="#ffd9b8" opacity="0.4"/><rect x="420" y="50" width="300" height="6" rx="3.0" fill="#ffd9b8" opacity="0.4"/><rect x="520" y="90" width="180" height="4" rx="2.0" fill="#ffd9b8" opacity="0.4"/><path d="M470 132 Q500 104 540 100 Q580 96 610 108 Q650 118 690 132 Z" fill="#2b3052"/><rect x="566" y="62" width="8" height="42" fill="#2b3052"/><rect x="560" y="56" width="20" height="8" rx="2" fill="#2b3052"/><rect x="564" y="58" width="12" height="4" fill="#ffe2a8"/><rect x="568" y="48" width="4" height="8" fill="#2b3052"/><path d="M392 132 L470 124" stroke="#2b3052" stroke-width="2"/><rect y="130" width="800" height="70" fill="url(#d8w)"/><rect x="310.0" y="136" width="40" height="2" rx="1" fill="#ffe2a8" opacity="0.9"/><rect x="302.0" y="144" width="56" height="2" rx="1" fill="#ffe2a8" opacity="0.7"/><rect x="313.0" y="152" width="34" height="2" rx="1" fill="#ffe2a8" opacity="0.6"/><rect x="305.0" y="160" width="50" height="2" rx="1" fill="#ffe2a8" opacity="0.5"/><rect x="20" y="138" width="64" height="1.6" rx=".8" fill="#fde6c6" opacity="0.3"/><rect x="146" y="138" width="97" height="1.6" rx=".8" fill="#fde6c6" opacity="0.3"/><rect x="305" y="138" width="74" height="1.6" rx=".8" fill="#fde6c6" opacity="0.3"/><rect x="408" y="138" width="78" height="1.6" rx=".8" fill="#fde6c6" opacity="0.3"/><rect x="506" y="138" width="77" height="1.6" rx=".8" fill="#fde6c6" opacity="0.3"/><rect x="633" y="138" width="65" height="1.6" rx=".8" fill="#fde6c6" opacity="0.3"/><rect x="759" y="138" width="88" height="1.6" rx=".8" fill="#fde6c6" opacity="0.3"/><rect x="36" y="145" width="59" height="1.6" rx=".8" fill="#fde6c6" opacity="0.3"/><rect x="150" y="145" width="30" height="1.6" rx=".8" fill="#fde6c6" opacity="0.3"/><rect x="242" y="145" width="109" height="1.6" rx=".8" fill="#fde6c6" opacity="0.3"/><rect x="380" y="145" width="86" height="1.6" rx=".8" fill="#fde6c6" opacity="0.3"/><rect x="509" y="145" width="50" height="1.6" rx=".8" fill="#fde6c6" opacity="0.3"/><rect x="600" y="145" width="56" height="1.6" rx=".8" fill="#fde6c6" opacity="0.3"/><rect x="679" y="145" width="103" height="1.6" rx=".8" fill="#fde6c6" opacity="0.3"/><rect x="-31" y="152" width="95" height="1.6" rx=".8" fill="#fde6c6" opacity="0.3"/><rect x="127" y="152" width="73" height="1.6" rx=".8" fill="#fde6c6" opacity="0.3"/><rect x="263" y="152" width="81" height="1.6" rx=".8" fill="#fde6c6" opacity="0.3"/><rect x="369" y="152" width="32" height="1.6" rx=".8" fill="#fde6c6" opacity="0.3"/><rect x="424" y="152" width="95" height="1.6" rx=".8" fill="#fde6c6" opacity="0.3"/><rect x="553" y="152" width="41" height="1.6" rx=".8" fill="#fde6c6" opacity="0.3"/><rect x="641" y="152" width="86" height="1.6" rx=".8" fill="#fde6c6" opacity="0.3"/><rect x="754" y="152" width="84" height="1.6" rx=".8" fill="#fde6c6" opacity="0.3"/><rect x="29" y="159" width="70" height="1.6" rx=".8" fill="#fde6c6" opacity="0.3"/><rect x="158" y="159" width="101" height="1.6" rx=".8" fill="#fde6c6" opacity="0.3"/><rect x="289" y="159" width="36" height="1.6" rx=".8" fill="#fde6c6" opacity="0.3"/><rect x="380" y="159" width="51" height="1.6" rx=".8" fill="#fde6c6" opacity="0.3"/><rect x="483" y="159" width="40" height="1.6" rx=".8" fill="#fde6c6" opacity="0.3"/><rect x="568" y="159" width="107" height="1.6" rx=".8" fill="#fde6c6" opacity="0.3"/><rect x="721" y="159" width="106" height="1.6" rx=".8" fill="#fde6c6" opacity="0.3"/><rect x="21" y="166" width="107" height="1.6" rx=".8" fill="#fde6c6" opacity="0.3"/><rect x="172" y="166" width="99" height="1.6" rx=".8" fill="#fde6c6" opacity="0.3"/><rect x="292" y="166" width="40" height="1.6" rx=".8" fill="#fde6c6" opacity="0.3"/><rect x="364" y="166" width="63" height="1.6" rx=".8" fill="#fde6c6" opacity="0.3"/><rect x="469" y="166" width="76" height="1.6" rx=".8" fill="#fde6c6" opacity="0.3"/><rect x="609" y="166" width="79" height="1.6" rx=".8" fill="#fde6c6" opacity="0.3"/><rect x="751" y="166" width="69" height="1.6" rx=".8" fill="#fde6c6" opacity="0.3"/><rect x="-8" y="173" width="60" height="1.6" rx=".8" fill="#fde6c6" opacity="0.3"/><rect x="93" y="173" width="76" height="1.6" rx=".8" fill="#fde6c6" opacity="0.3"/><rect x="212" y="173" width="95" height="1.6" rx=".8" fill="#fde6c6" opacity="0.3"/><rect x="363" y="173" width="94" height="1.6" rx=".8" fill="#fde6c6" opacity="0.3"/><rect x="488" y="173" width="33" height="1.6" rx=".8" fill="#fde6c6" opacity="0.3"/><rect x="565" y="173" width="85" height="1.6" rx=".8" fill="#fde6c6" opacity="0.3"/><rect x="672" y="173" width="96" height="1.6" rx=".8" fill="#fde6c6" opacity="0.3"/><rect x="789" y="173" width="58" height="1.6" rx=".8" fill="#fde6c6" opacity="0.3"/><rect x="14" y="180" width="35" height="1.6" rx=".8" fill="#fde6c6" opacity="0.3"/><rect x="93" y="180" width="56" height="1.6" rx=".8" fill="#fde6c6" opacity="0.3"/><rect x="218" y="180" width="107" height="1.6" rx=".8" fill="#fde6c6" opacity="0.3"/><rect x="351" y="180" width="100" height="1.6" rx=".8" fill="#fde6c6" opacity="0.3"/><rect x="485" y="180" width="52" height="1.6" rx=".8" fill="#fde6c6" opacity="0.3"/><rect x="561" y="180" width="65" height="1.6" rx=".8" fill="#fde6c6" opacity="0.3"/><rect x="648" y="180" width="85" height="1.6" rx=".8" fill="#fde6c6" opacity="0.3"/><rect x="770" y="180" width="93" height="1.6" rx=".8" fill="#fde6c6" opacity="0.3"/><rect x="37" y="187" width="36" height="1.6" rx=".8" fill="#fde6c6" opacity="0.3"/><rect x="125" y="187" width="88" height="1.6" rx=".8" fill="#fde6c6" opacity="0.3"/><rect x="256" y="187" width="56" height="1.6" rx=".8" fill="#fde6c6" opacity="0.3"/><rect x="353" y="187" width="66" height="1.6" rx=".8" fill="#fde6c6" opacity="0.3"/><rect x="468" y="187" width="90" height="1.6" rx=".8" fill="#fde6c6" opacity="0.3"/><rect x="622" y="187" width="91" height="1.6" rx=".8" fill="#fde6c6" opacity="0.3"/><rect x="748" y="187" width="51" height="1.6" rx=".8" fill="#fde6c6" opacity="0.3"/><rect x="30" y="194" width="76" height="1.6" rx=".8" fill="#fde6c6" opacity="0.3"/><rect x="137" y="194" width="54" height="1.6" rx=".8" fill="#fde6c6" opacity="0.3"/><rect x="260" y="194" width="58" height="1.6" rx=".8" fill="#fde6c6" opacity="0.3"/><rect x="376" y="194" width="30" height="1.6" rx=".8" fill="#fde6c6" opacity="0.3"/><rect x="443" y="194" width="73" height="1.6" rx=".8" fill="#fde6c6" opacity="0.3"/><rect x="547" y="194" width="60" height="1.6" rx=".8" fill="#fde6c6" opacity="0.3"/><rect x="677" y="194" width="31" height="1.6" rx=".8" fill="#fde6c6" opacity="0.3"/><rect x="760" y="194" width="35" height="1.6" rx=".8" fill="#fde6c6" opacity="0.3"/><path d="M380 176 Q600 164 800 170 L800 200 L380 200 Z" fill="#23304f"/><g transform="translate(520 156)"><rect width="120" height="18" rx="4" fill="#e9dfc2"/><rect y="11" width="120" height="7" fill="#3f7a4e"/><rect x="8" y="3" width="12" height="6" fill="#23304f"/><rect x="26" y="3" width="12" height="6" fill="#23304f"/><rect x="44" y="3" width="12" height="6" fill="#23304f"/><rect x="62" y="3" width="12" height="6" fill="#23304f"/><rect x="80" y="3" width="12" height="6" fill="#23304f"/><rect x="98" y="3" width="12" height="6" fill="#23304f"/></g><rect width="800" height="200" filter="url(#il-grain)" opacity=".5" style="mix-blend-mode:multiply"/></svg>