<svg xmlns="http://www.w3.org/2000/svg" width="800" height="200" viewBox="0 0 800 200" preserveAspectRatio="xMidYMax slice"><defs><filter id="il-grain" x="0" y="0" width="100%" height="100%"><feTurbulence type="fractalNoise" baseFrequency=".85" numOctaves="2" stitchTiles="stitch"/><feColorMatrix type="matrix" values="0 0 0 0 .45  0 0 0 0 .38  0 0 0 0 .3  0 0 0 .55 0"/></filter><linearGradient id="d4s" x1="0" y1="0" x2="0" y2="1"><stop offset="0" stop-color="#3b3f72"/><stop offset="0.45" stop-color="#b86a7a"/><stop offset="0.8" stop-color="#f2a25c"/><stop offset="1" stop-color="#f7cf86"/></linearGradient><linearGradient id="d4w" x1="0" y1="0" x2="0" y2="1"><stop offset="0" stop-color="#e79a64"/><stop offset="1" stop-color="#39406b"/></linearGradient></defs><rect width="800" height="200" fill="url(#d4s)"/><circle cx="610" cy="118" r="22" fill="#ffe0a3"/><rect x="60" y="50" width="240" height="6" rx="3.0" fill="#ffd9b0" opacity="0.45"/><rect x="480" y="36" width="280" height="6" rx="3.0" fill="#ffd9b0" opacity="0.45"/><rect x="540" y="88" width="220" height="5" rx="2.5" fill="#ffd9b0" opacity="0.45"/><path d="M160.0 140 Q326.4 120.56 375.8 34 L404.53 31 L428.84 33 L464.2 34 Q513.6 120.56 680.0 140 Z" fill="#4a4674"/><path d="M375.8 34 L404.53 31 L428.84 33 L464.2 34 Q476.5704464875266 48.2 495.63731508650744 64.4 L487.2331689657844 62.46294207707879 L478.82902284506133 74.08528961460608 L470.4248767243383 62.851532415696006 L462.0207306036152 67.496935168608 L453.6165844828922 61.72814079976328 L445.21243836216917 77.75929600118364 L436.8082922414461 63.02767912563004 L428.40414612072306 67.14464174873994 L420.0 61.98659466552546 L411.59585387927694 76.46702667237274 L403.1917077585539 62.36891641704757 L394.78756163783083 68.46216716590487 L386.38341551710784 63.0601112153861 L377.9792693963848 71.09944392306951 L369.5751232756617 62.050496368963294 L361.17097715493867 69.09900726207343 L344.36268491349256 64.4 Q363.4295535124734 48.2 375.8 34 Z" fill="#e9d3de"/><path d="M0 140 Q120 118 220 132 Q300 142 360 140 L360 142 L0 142 Z" fill="#2d2f55"/><path d="M520 140 Q620 120 800 128 L800 142 L520 142 Z" fill="#2d2f55"/><rect y="140" width="800" height="60" fill="url(#d4w)"/><g opacity=".35" transform="translate(0 280) scale(1 -1)"><path d="M160.0 140 Q326.4 120.56 375.8 34 L404.53 31 L428.84 33 L464.2 34 Q513.6 120.56 680.0 140 Z" fill="#4a4674"/><path d="M375.8 34 L404.53 31 L428.84 33 L464.2 34 Q476.5704464875266 48.2 495.63731508650744 64.4 L487.2331689657844 62.46294207707879 L478.82902284506133 74.08528961460608 L470.4248767243383 62.851532415696006 L462.0207306036152 67.496935168608 L453.6165844828922 61.72814079976328 L445.21243836216917 77.75929600118364 L436.8082922414461 63.02767912563004 L428.40414612072306 67.14464174873994 L420.0 61.98659466552546 L411.59585387927694 76.46702667237274 L403.1917077585539 62.36891641704757 L394.78756163783083 68.46216716590487 L386.38341551710784 63.0601112153861 L377.9792693963848 71.09944392306951 L369.5751232756617 62.050496368963294 L361.17097715493867 69.09900726207343 L344.36268491349256 64.4 Q363.4295535124734 48.2 375.8 34 Z" fill="#e9d3de"/></g><rect x="596" y="146" width="28" height="2" rx="1" fill="#ffe0a3" opacity=".8"/><rect x="590" y="154" width="40" height="2" rx="1" fill="#ffe0a3" opacity=".6"/><rect x="600" y="162" width="20" height="2" rx="1" fill="#ffe0a3" opacity=".5"/><rect x="19" y="146" width="108" height="1.6" rx=".8" fill="#fbe2c0" opacity="0.35"/><rect x="170" y="146" width="64" height="1.6" rx=".8" fill="#fbe2c0" opacity="0.35"/><rect x="262" y="146" width="53" height="1.6" rx=".8" fill="#fbe2c0" opacity="0.35"/><rect x="378" y="146" width="30" height="1.6" rx=".8" fill="#fbe2c0" opacity="0.35"/><rect x="449" y="146" width="94" height="1.6" rx=".8" fill="#fbe2c0" opacity="0.35"/><rect x="592" y="146" width="107" height="1.6" rx=".8" fill="#fbe2c0" opacity="0.35"/><rect x="724" y="146" width="72" height="1.6" rx=".8" fill="#fbe2c0" opacity="0.35"/><rect x="38" y="153" width="35" height="1.6" rx=".8" fill="#fbe2c0" opacity="0.35"/><rect x="139" y="153" width="78" height="1.6" rx=".8" fill="#fbe2c0" opacity="0.35"/><rect x="247" y="153" width="87" height="1.6" rx=".8" fill="#fbe2c0" opacity="0.35"/><rect x="400" y="153" width="84" height="1.6" rx=".8" fill="#fbe2c0" opacity="0.35"/><rect x="514" y="153" width="51" height="1.6" rx=".8" fill="#fbe2c0" opacity="0.35"/><rect x="600" y="153" width="36" height="1.6" rx=".8" fill="#fbe2c0" opacity="0.35"/><rect x="663" y="153" width="46" height="1.6" rx=".8" fill="#fbe2c0" opacity="0.35"/><rect x="761" y="153" width="105" height="1.6" rx=".8" fill="#fbe2c0" opacity="0.35"/><rect x="9" y="160" width="43" height="1.6" rx=".8" fill="#fbe2c0" opacity="0.35"/><rect x="90" y="160" width="56" height="1.6" rx=".8" fill="#fbe2c0" opacity="0.35"/><rect x="209" y="160" width="58" height="1.6" rx=".8" fill="#fbe2c0" opacity="0.35"/><rect x="333" y="160" width="83" height="1.6" rx=".8" fill="#fbe2c0" opacity="0.35"/><rect x="441" y="160" width="64" height="1.6" rx=".8" fill="#fbe2c0" opacity="0.35"/><rect x="538" y="160" width="80" height="1.6" rx=".8" fill="#fbe2c0" opacity="0.35"/><rect x="655" y="160" width="73" height="1.6" rx=".8" fill="#fbe2c0" opacity="0.35"/><rect x="750" y="160" width="55" height="1.6" rx=".8" fill="#fbe2c0" opacity="0.35"/><rect x="-40" y="167" width="82" height="1.6" rx=".8" fill="#fbe2c0" opacity="0.35"/><rect x="65" y="167" width="78" height="1.6" rx=".8" fill="#fbe2c0" opacity="0.35"/><rect x="194" y="167" width="47" height="1.6" rx=".8" fill="#fbe2c0" opacity="0.35"/><rect x="262" y="167" width="60" height="1.6" rx=".8" fill="#fbe2c0" opacity="0.35"/><rect x="369" y="167" width="44" height="1.6" rx=".8" fill="#fbe2c0" opacity="0.35"/><rect x="471" y="167" width="30" height="1.6" rx=".8" fill="#fbe2c0" opacity="0.35"/><rect x="528" y="167" width="104" height="1.6" rx=".8" fill="#fbe2c0" opacity="0.35"/><rect x="664" y="167" width="55" height="1.6" rx=".8" fill="#fbe2c0" opacity="0.35"/><rect x="760" y="167" width="31" height="1.6" rx=".8" fill="#fbe2c0" opacity="0.35"/><rect x="-23" y="174" width="99" height="1.6" rx=".8" fill="#fbe2c0" opacity="0.35"/><rect x="97" y="174" width="94" height="1.6" rx=".8" fill="#fbe2c0" opacity="0.35"/><rect x="216" y="174" width="103" height="1.6" rx=".8" fill="#fbe2c0" opacity="0.35"/><rect x="370" y="174" width="98" height="1.6" rx=".8" fill="#fbe2c0" opacity="0.35"/><rect x="500" y="174" width="83" height="1.6" rx=".8" fill="#fbe2c0" opacity="0.35"/><rect x="607" y="174" width="80" height="1.6" rx=".8" fill="#fbe2c0" opacity="0.35"/><rect x="719" y="174" width="41" height="1.6" rx=".8" fill="#fbe2c0" opacity="0.35"/><rect x="34" y="181" width="48" height="1.6" rx=".8" fill="#fbe2c0" opacity="0.35"/><rect x="113" y="181" width="107" height="1.6" rx=".8" fill="#fbe2c0" opacity="0.35"/><rect x="286" y="181" width="35" height="1.6" rx=".8" fill="#fbe2c0" opacity="0.35"/><rect x="344" y="181" width="64" height="1.6" rx=".8" fill="#fbe2c0" opacity="0.35"/><rect x="463" y="181" width="107" height="1.6" rx=".8" fill="#fbe2c0" opacity="0.35"/><rect x="599" y="181" width="64" height="1.6" rx=".8" fill="#fbe2c0" opacity="0.35"/><rect x="730" y="181" width="103" height="1.6" rx=".8" fill="#fbe2c0" opacity="0.35"/><rect x="-25" y="188" width="81" height="1.6" rx=".8" fill="#fbe2c0" opacity="0.35"/><rect x="91" y="188" width="50" height="1.6" rx=".8" fill="#fbe2c0" opacity="0.35"/><rect x="200" y="188" width="94" height="1.6" rx=".8" fill="#fbe2c0" opacity="0.35"/><rect x="316" y="188" width="76" height="1.6" rx=".8" fill="#fbe2c0" opacity="0.35"/><rect x="455" y="188" width="96" height="1.6" rx=".8" fill="#fbe2c0" opacity="0.35"/><rect x="608" y="188" width="102" height="1.6" rx=".8" fill="#fbe2c0" opacity="0.35"/><rect x="779" y="188" width="41" height="1.6" rx=".8" fill="#fbe2c0" opacity="0.35"/><rect x="-26" y="195" width="104" height="1.6" rx=".8" fill="#fbe2c0" opacity="0.35"/><rect x="121" y="195" width="87" height="1.6" rx=".8" fill="#fbe2c0" opacity="0.35"/><rect x="241" y="195" width="81" height="1.6" rx=".8" fill="#fbe2c0" opacity="0.35"/><rect x="354" y="195" width="103" height="1.6" rx=".8" fill="#fbe2c0" opacity="0.35"/><rect x="524" y="195" width="32" height="1.6" rx=".8" fill="#fbe2c0" opacity="0.35"/><rect x="600" y="195" width="107" height="1.6" rx=".8" fill="#fbe2c0" opacity="0.35"/><rect x="748" y="195" width="30" height="1.6" rx=".8" fill="#fbe2c0" opacity="0.35"/><rect width="800" height="200" filter="url(#il-grain)" opacity=".5" style="mix-blend-mode:multiply"/></svg>